<svg width="159" height="434" viewBox="0 0 159 434" fill="none" xmlns="http://www.w3.org/2000/svg">
<path d="M87.6584 217C87.6584 276.9 82.7262 331.115 74.7579 370.343C70.7729 389.961 66.0337 405.804 60.7861 416.731C58.1618 422.195 55.4226 426.404 52.6078 429.239C49.7942 432.073 46.9433 433.5 44.0792 433.5C41.2151 433.5 38.3642 432.073 35.5506 429.239C32.7358 426.404 29.9967 422.195 27.3723 416.731C22.1247 405.804 17.3855 389.961 13.4005 370.343C5.43217 331.115 0.5 276.9 0.5 217C0.5 157.1 5.43217 102.885 13.4005 63.6574C17.3855 44.0394 22.1247 28.1961 27.3723 17.2694C29.9967 11.8049 32.7358 7.59646 35.5506 4.76092C38.3642 1.92654 41.2151 0.5 44.0792 0.5C46.9433 0.5 49.7942 1.92654 52.6078 4.76092C55.4226 7.59646 58.1618 11.8049 60.7861 17.2694C66.0337 28.1961 70.7729 44.0394 74.7579 63.6574C82.7262 102.885 87.6584 157.1 87.6584 217Z" stroke="#01AF24"/>
<path d="M158.5 217C158.5 276.9 153.568 331.115 145.599 370.343C141.614 389.961 136.875 405.804 131.628 416.731C129.003 422.195 126.264 426.404 123.449 429.239C120.636 432.073 117.785 433.5 114.921 433.5C112.057 433.5 109.206 432.073 106.392 429.239C103.577 426.404 100.838 422.195 98.2139 416.731C92.9663 405.804 88.227 389.961 84.242 370.343C76.2737 331.115 71.3416 276.9 71.3416 217C71.3416 157.1 76.2737 102.885 84.242 63.6574C88.227 44.0394 92.9663 28.1961 98.2139 17.2694C100.838 11.8049 103.577 7.59646 106.392 4.76092C109.206 1.92654 112.057 0.5 114.921 0.5C117.785 0.5 120.636 1.92654 123.449 4.76092C126.264 7.59646 129.003 11.8049 131.628 17.2694C136.875 28.1961 141.614 44.0394 145.599 63.6574C153.568 102.885 158.5 157.1 158.5 217Z" stroke="#01AF24"/>
<path d="M123.866 217C123.866 276.9 118.934 331.115 110.966 370.343C106.981 389.961 102.242 405.804 96.9941 416.731C94.3698 422.195 91.6306 426.404 88.8159 429.239C86.0023 432.073 83.1513 433.5 80.2872 433.5C77.4231 433.5 74.5722 432.073 71.7586 429.239C68.9438 426.404 66.2047 422.195 63.5803 416.731C58.3327 405.804 53.5935 389.961 49.6085 370.343C41.6402 331.115 36.708 276.9 36.708 217C36.708 157.1 41.6402 102.885 49.6085 63.6574C53.5935 44.0394 58.3327 28.1961 63.5803 17.2694C66.2047 11.8049 68.9438 7.59646 71.7586 4.76092C74.5722 1.92654 77.4231 0.5 80.2872 0.5C83.1513 0.5 86.0023 1.92654 88.8159 4.76092C91.6306 7.59646 94.3698 11.8049 96.9941 17.2694C102.242 28.1961 106.981 44.0394 110.966 63.6574C118.934 102.885 123.866 157.1 123.866 217Z" stroke="#01AF24"/>
</svg>
