<svg width="177" height="141" viewBox="0 0 177 141" fill="none" xmlns="http://www.w3.org/2000/svg">
<path d="M60.941 64.7681C51.8487 73.7102 42.0599 80.1884 33.6006 83.4449C29.3702 85.0735 25.4953 85.8874 22.2191 85.8174C18.946 85.7474 16.3044 84.7978 14.4723 82.935C12.6403 81.0722 11.7348 78.4151 11.7193 75.1413C11.7038 71.8644 12.5822 68.0036 14.281 63.8008C17.678 55.397 24.3182 45.7174 33.4105 36.7753C42.5028 27.8331 52.2916 21.355 60.7509 18.0984C64.9814 16.4699 68.8562 15.6559 72.1325 15.7259C75.4055 15.7959 78.0472 16.7455 79.8792 18.6083C81.7113 20.4711 82.6168 23.1282 82.6322 26.402C82.6477 29.679 81.7693 33.5397 80.0705 37.7425C76.6736 46.1464 70.0333 55.826 60.941 64.7681Z" stroke="#01AF24"/>
<path d="M143.372 67.4217C134.279 76.3638 124.49 82.842 116.031 86.0985C111.801 87.7271 107.926 88.5411 104.65 88.471C101.377 88.4011 98.7349 87.4514 96.9029 85.5886C95.0708 83.7258 94.1653 81.0687 94.1499 77.795C94.1344 74.518 95.0128 70.6572 96.7116 66.4545C100.109 58.0506 106.749 48.371 115.841 39.4289C124.933 30.4868 134.722 24.0086 143.181 20.7521C147.412 19.1235 151.287 18.3095 154.563 18.3796C157.836 18.4495 160.478 19.3992 162.31 21.262C164.142 23.1248 165.047 25.7819 165.063 29.0556C165.078 32.3326 164.2 36.1934 162.501 40.3961C159.104 48.8 152.464 58.4796 143.372 67.4217Z" stroke="#01AF24"/>
<path d="M102.371 65.4217C93.2791 74.3638 83.4904 80.842 75.0311 84.0985C70.8006 85.7271 66.9257 86.541 63.6495 86.471C60.3764 86.401 57.7348 85.4514 55.9027 83.5886C54.0707 81.7258 53.1652 79.0687 53.1497 75.7949C53.1343 72.518 54.0126 68.6572 55.7114 64.4544C59.1084 56.0505 65.7487 46.371 74.8409 37.4289C83.9332 28.4867 93.722 22.0086 102.181 18.752C106.412 17.1235 110.287 16.3095 113.563 16.3795C116.836 16.4495 119.478 17.3991 121.31 19.2619C123.142 21.1247 124.047 23.7818 124.063 27.0556C124.078 30.3326 123.2 34.1933 121.501 38.3961C118.104 46.8 111.464 56.4795 102.371 65.4217Z" stroke="#01AF24"/>
</svg>
