<svg width="101" height="244" viewBox="0 0 101 244" fill="none" xmlns="http://www.w3.org/2000/svg">
<path d="M55.5 122C55.5 155.663 52.368 186.124 47.3117 208.155C44.7826 219.175 41.7781 228.058 38.4594 234.174C36.7999 237.233 35.0743 239.575 33.3102 241.148C31.5492 242.718 29.7754 243.5 28 243.5C26.2246 243.5 24.4508 242.718 22.6898 241.148C20.9257 239.575 19.2001 237.233 17.5406 234.174C14.2219 228.058 11.2174 219.175 8.68834 208.155C3.63199 186.124 0.5 155.663 0.5 122C0.5 88.3368 3.63199 57.876 8.68834 35.8448C11.2174 24.8252 14.2219 15.942 17.5406 9.82583C19.2001 6.76747 20.9257 4.42465 22.6898 2.85181C24.4508 1.28169 26.2246 0.5 28 0.5C29.7754 0.5 31.5492 1.28169 33.3102 2.85181C35.0743 4.42465 36.7999 6.76747 38.4594 9.82583C41.7781 15.942 44.7826 24.8252 47.3117 35.8448C52.368 57.876 55.5 88.3368 55.5 122Z" stroke="#01AF24"/>
<path d="M100.5 122C100.5 155.663 97.368 186.124 92.3117 208.155C89.7826 219.175 86.7781 228.058 83.4594 234.174C81.7999 237.233 80.0743 239.575 78.3102 241.148C76.5492 242.718 74.7754 243.5 73 243.5C71.2246 243.5 69.4508 242.718 67.6898 241.148C65.9257 239.575 64.2001 237.233 62.5406 234.174C59.2219 228.058 56.2174 219.175 53.6883 208.155C48.632 186.124 45.5 155.663 45.5 122C45.5 88.3368 48.632 57.876 53.6883 35.8448C56.2174 24.8252 59.2219 15.942 62.5406 9.82583C64.2001 6.76747 65.9257 4.42465 67.6898 2.85181C69.4508 1.28169 71.2246 0.5 73 0.5C74.7754 0.5 76.5492 1.28169 78.3102 2.85181C80.0743 4.42465 81.7999 6.76747 83.4594 9.82583C86.7781 15.942 89.7826 24.8252 92.3117 35.8448C97.368 57.876 100.5 88.3368 100.5 122Z" stroke="#01AF24"/>
<path d="M78.5 122C78.5 155.663 75.368 186.124 70.3117 208.155C67.7826 219.175 64.7781 228.058 61.4594 234.174C59.7999 237.233 58.0743 239.575 56.3102 241.148C54.5492 242.718 52.7754 243.5 51 243.5C49.2246 243.5 47.4508 242.718 45.6898 241.148C43.9257 239.575 42.2001 237.233 40.5406 234.174C37.2219 228.058 34.2174 219.175 31.6883 208.155C26.632 186.124 23.5 155.663 23.5 122C23.5 88.3368 26.632 57.876 31.6883 35.8448C34.2174 24.8252 37.2219 15.942 40.5406 9.82583C42.2001 6.76747 43.9257 4.42465 45.6898 2.85181C47.4508 1.28169 49.2246 0.5 51 0.5C52.7754 0.5 54.5492 1.28169 56.3102 2.85181C58.0743 4.42465 59.7999 6.76747 61.4594 9.82583C64.7781 15.942 67.7826 24.8252 70.3117 35.8448C75.368 57.876 78.5 88.3368 78.5 122Z" stroke="#01AF24"/>
</svg>
