<svg width="27" height="28" viewBox="0 0 27 28" fill="none" xmlns="http://www.w3.org/2000/svg">
<path d="M14.7 21.84L14.68 22H11.1V21.84C11.94 21.84 12.62 21.16 12.62 20.3V10.26C12.62 9.42 11.94 8.74 11.1 8.74V8.56H14.74L19.04 18.76L22.86 8.56H26.5V8.74C25.72 8.74 25.08 9.38 25.08 10.16V20.4C25.08 21.2 25.72 21.84 26.5 21.84V22H21.16V21.84C21.96 21.84 22.6 21.2 22.6 20.4V10.8L18.36 22H17.82L13.16 10.74V20.3C13.16 21.16 13.84 21.84 14.68 21.84H14.7Z" fill="#01AF24"/>
<path d="M5.962 17.824V18H0.11V17.824C0.968 17.824 1.672 17.12 1.672 16.24V4.976C1.672 4.118 0.968 3.414 0.11 3.414V3.216H5.962V3.414C5.104 3.414 4.4 4.118 4.4 4.976V9.86C5.236 6.098 7.876 2.908 10.824 2.908C13.816 2.908 13.002 6.34 12.232 6.736C12.232 6.736 11.792 5.57 10.34 5.57C9.24 5.57 8.228 5.988 7.326 6.692L12.1 16.284C12.518 17.098 13.354 17.824 14.278 17.824V18H7.37V17.824C7.37 17.824 9.592 17.626 9.108 16.812L5.302 9.2C4.73 10.344 4.4 11.598 4.4 12.852V16.262C4.4 17.12 5.104 17.824 5.962 17.824Z" fill="#01AF24"/>
</svg>
