<svg width="41" height="41" viewBox="0 0 41 41" fill="none" xmlns="http://www.w3.org/2000/svg">
<path d="M25.0599 16.1508C29.1464 20.2374 32.2966 24.4578 34.0924 27.9653C34.9917 29.7216 35.5379 31.2733 35.706 32.5241C35.8753 33.7844 35.6512 34.6417 35.1472 35.1457C34.6432 35.6497 33.7859 35.8738 32.5257 35.7044C31.2748 35.5363 29.7232 34.9901 27.9668 34.0909C24.4594 32.2951 20.2389 29.1449 16.1524 25.0583C12.0658 20.9718 8.91562 16.7513 7.1198 13.2439C6.22055 11.4875 5.67439 9.93588 5.5063 8.68504C5.33694 7.42475 5.56103 6.56747 6.06502 6.06347C6.56902 5.55947 7.4263 5.33538 8.68659 5.50474C9.93744 5.67283 11.4891 6.21899 13.2454 7.11824C16.7529 8.91406 20.9733 12.0643 25.0599 16.1508Z" stroke="#01AF24"/>
<path d="M23.7001 28.8399L23.6801 28.9999H20.1001V28.8399C20.9401 28.8399 21.6201 28.1599 21.6201 27.2999V17.2599C21.6201 16.4199 20.9401 15.7399 20.1001 15.7399V15.5599H23.7401L28.0401 25.7599L31.8601 15.5599H35.5001V15.7399C34.7201 15.7399 34.0801 16.3799 34.0801 17.1599V27.3999C34.0801 28.1999 34.7201 28.8399 35.5001 28.8399V28.9999H30.1601V28.8399C30.9601 28.8399 31.6001 28.1999 31.6001 27.3999V17.7999L27.3601 28.9999H26.8201L22.1601 17.7399V27.2999C22.1601 28.1599 22.8401 28.8399 23.6801 28.8399H23.7001Z" fill="#01AF24"/>
<path d="M14.9621 24.8239V24.9999H9.11006V24.8239C9.96806 24.8239 10.6721 24.1199 10.6721 23.2399V11.9759C10.6721 11.1179 9.96806 10.4139 9.11006 10.4139V10.2159H14.9621V10.4139C14.1041 10.4139 13.4001 11.1179 13.4001 11.9759V16.8599C14.2361 13.0979 16.8761 9.90794 19.8241 9.90794C22.8161 9.90794 22.0021 13.3399 21.2321 13.7359C21.2321 13.7359 20.7921 12.5699 19.3401 12.5699C18.2401 12.5699 17.2281 12.9879 16.3261 13.6919L21.1001 23.2839C21.5181 24.0979 22.3541 24.8239 23.2781 24.8239V24.9999H16.3701V24.8239C16.3701 24.8239 18.5921 24.6259 18.1081 23.8119L14.3021 16.1999C13.7301 17.3439 13.4001 18.5979 13.4001 19.8519V23.2619C13.4001 24.1199 14.1041 24.8239 14.9621 24.8239Z" fill="#01AF24"/>
</svg>
